<?xml version="1.0" encoding="iso-8859-1"?>
<!-- Generator: Adobe Illustrator 19.0.0, SVG Export Plug-In . SVG Version: 6.00 Build 0)  -->
<svg version="1.1" id="Layer_1" xmlns="http://www.w3.org/2000/svg" xmlns:xlink="http://www.w3.org/1999/xlink" x="0px" y="0px"
	 viewBox="0 0 512 512" style="enable-background:new 0 0 512 512;" xml:space="preserve">
<g>
	<g>
		<g>
			<path d="M277.333,224H480c5.896,0,10.667-4.771,10.667-10.667C490.667,95.698,394.969,0,277.333,0
				c-5.896,0-10.667,4.771-10.667,10.667v202.667C266.667,219.229,271.438,224,277.333,224z M288,21.625
				c97.396,5.365,175.677,83.646,181.042,181.042H288V21.625z"/>
			<path d="M501.333,245.333H298.667c-4.313,0-8.208,2.594-9.854,6.583c-1.656,3.99-0.74,8.573,2.313,11.625l143.313,143.313
				c2,2,4.708,3.125,7.542,3.125s5.542-1.125,7.542-3.125C489.813,366.552,512,312.979,512,256
				C512,250.104,507.229,245.333,501.333,245.333z M441.771,384.021L324.417,266.667h165.958
				C488,310.406,471.021,351.406,441.771,384.021z"/>
			<path d="M245.333,251.583V53.333c0-5.896-4.771-10.667-10.667-10.667C105.271,42.667,0,147.938,0,277.333
				S105.271,512,234.667,512c67.531,0,131.896-29.313,176.583-80.427c3.698-4.229,3.479-10.594-0.49-14.563L245.333,251.583z
				 M234.667,490.667c-117.635,0-213.333-95.698-213.333-213.333c0-114.052,89.969-207.5,202.667-213.073V256
				c0,2.833,1.125,5.542,3.125,7.542l161.333,161.333C348.24,466.802,292.74,490.667,234.667,490.667z"/>
		</g>
	</g>
</g>
<g>
</g>
<g>
</g>
<g>
</g>
<g>
</g>
<g>
</g>
<g>
</g>
<g>
</g>
<g>
</g>
<g>
</g>
<g>
</g>
<g>
</g>
<g>
</g>
<g>
</g>
<g>
</g>
<g>
</g>
</svg>
